<svg width="67" height="59" viewBox="0 0 67 59" fill="none" xmlns="http://www.w3.org/2000/svg">
<path d="M53.2409 45.3153L56.2581 41.3435C57.8647 39.2215 58.9273 37.8242 59.3114 36.7815L59.3672 36.8133C60.4295 37.4178 61.6277 37.7089 62.7629 37.6385C63.8981 37.5681 64.902 37.1403 65.6079 36.4262C66.3138 35.712 66.6794 34.7545 66.6438 33.7125C66.6082 32.6706 66.1736 31.6069 65.4122 30.698C64.6509 29.7891 63.6085 29.0898 62.4581 28.7161C61.3078 28.3424 60.1186 28.3168 59.0882 28.6435C58.0577 28.9703 57.2479 29.6297 56.7931 30.5124C56.3384 31.395 56.2661 32.4478 56.5882 33.496C55.2882 33.4266 53.3565 33.7451 50.4507 34.2231C48.2073 34.5911 47.0879 34.7747 46.177 34.3829C45.6721 34.1659 45.22 33.8357 44.871 33.4292C44.2435 32.6982 44.1521 31.6318 43.974 29.4981L43.0236 18.2487C42.913 16.9344 42.822 15.8314 42.6932 14.9172C44.2279 15.1103 45.6982 14.8369 46.8671 14.141C48.0361 13.4451 48.8356 12.3672 49.1369 11.0811C49.4382 9.79495 49.2237 8.37544 48.528 7.0513C47.8323 5.72715 46.6958 4.57549 45.3018 3.78187C43.9078 2.98826 42.3374 2.59891 40.8437 2.67658C39.3499 2.75424 38.0198 3.29439 37.0676 4.20999C36.1154 5.12559 35.5967 6.36331 35.595 7.72372C35.5932 9.08412 36.1086 10.488 37.0581 11.7091C36.2048 12.0676 35.2112 12.5497 34.0216 13.1238L23.8661 18.0506C21.9373 18.9848 20.9736 19.4506 20.0248 19.2841C19.497 19.1916 18.9823 18.9713 18.538 18.6479C17.7392 18.0664 17.3257 17.01 16.497 14.8931C15.4247 12.1504 14.7126 10.3267 13.9894 9.24428C15.0551 8.98627 15.9235 8.38669 16.4504 7.54509C16.9773 6.70349 17.1309 5.6705 16.8859 4.6176C16.6409 3.56471 16.0119 2.55524 15.1033 1.7568C14.1947 0.958365 13.0613 0.41898 11.8911 0.228197C10.7209 0.0374143 9.58441 0.206709 8.67025 0.707976C7.75609 1.20924 7.11928 2.01233 6.86553 2.98391C6.61178 3.95548 6.75636 5.03711 7.27527 6.04921C7.79418 7.06131 8.6562 7.94301 9.71822 8.54792L9.77408 8.57972C9.07349 9.44225 8.41291 11.0717 7.40973 13.5339L5.53446 18.1558C4.4937 20.7201 3.46166 23.1392 2.62224 25.3642L48.5289 51.4991C50.0138 49.6415 51.5657 47.5217 53.2409 45.3153ZM16.1018 47.2203L22.8541 51.0644C31.6543 56.0744 36.0545 58.5795 40.2052 58.1161C42.0176 57.9132 43.7831 56.6958 45.6135 54.8447L1.23348 29.579C0.576036 32.0979 0.428961 34.2399 1.18111 35.8995C2.90138 39.7053 7.30152 42.2103 16.1018 47.2203Z" fill="#ECFF0C"/>
</svg>
