<svg xmlns="http://www.w3.org/2000/svg" viewBox="0 0 224.944 76.509"><path d="M145.469 39.788c.008.007.019.011.027.018l-.075-.071c.017.017.029.037.048.053ZM144.755 38.007v.035ZM51.169 26.466l-.084.262.023.023.092-.285h-.031zM152.839 37.9v-.012l-.014.027ZM134.027 43.542a6.585 6.585 0 0 1-.338-.353l.14.163Z" fill="#ed1c24"/><path d="M24.357 0 47.24 22.883h13.021L59.1 26.461v.005h-7.893l8.493 8.491 1.94-5.991-2.5-2.505 1.16-3.584 2.5 2.505 5.96-18.4h12.8l.036-.007 6.727 6.727L90.5 6.985h12.873L90.519 46.669H77.683l7.895 7.75h-6.8l.052.052h128.6l.017-.052L224.944.03Zm176.959 46.669h-12.965l8.031 7.75h-10.009l-7.752-7.753L183.8 30.7l2.429 2.429-.606-3.96v-.033l-1.876 1.564-5.173 15.97h-12.8l.011-.036-4.255-4.153-.016-.021a17.372 17.372 0 0 1-4.827 2.666 21.1 21.1 0 0 1-3.392.935h-.007l-.038.008c-.35.067-.713.126-1.08.181l-.21.032-.095.015a34.131 34.131 0 0 1-1.331.161c-.29.03-.591.052-.891.075-.154.012-.3.028-.46.038-.059 0-.121.006-.18.009-.138.009-.281.013-.421.021q-.983.05-2.028.06h-.641c-.927 0-1.8-.032-2.628-.084a18.929 18.929 0 0 1-7.092-1.554 9.283 9.283 0 0 1-1.669-1.061c-.131-.1-.263-.21-.383-.321L145.3 54.422h-8.222l-7.752-7.753 2.054-39.691 8.239 8.239a18.723 18.723 0 0 1 1.489-2.039 16.288 16.288 0 0 1 6.884-4.578 24.3 24.3 0 0 1 4.913-1.214 41.462 41.462 0 0 1 6.017-.4q6.436 0 9.58 1.445a6.227 6.227 0 0 1 3.8 4.043 10.747 10.747 0 0 1-.434 5.977l-.936 2.89v.006h-12.419l.956.957 2.809 2.81 7.914 7.916.022-.068 3.031-9.357-2.264-2.264 1.046-3.3.15-.471.1-.472.106-.487.062-.288.108-.819.009-.162.011-.2.026-.453-.023-.825v-.029l-.008-.071-.081-.669-.131-.627-.225-.675-.012-.035-.1-.192-.19-.383-.026-.051-.1-.142-.292-.422-.063-.09-.135-.147-.262-.283-.1-.105 5.136 5.177 2.633-8.128h12.8L186.175 23.2l.073-.079 5.23-16.146 5.034 5.034 4.643-5.027h12.516l-16.537 17.936M90.555 46.669l12.858-39.691 8.339 8.338 5-8.331h14.59l-2.057 39.684h-11.762l7.968 7.75h-12.664l-7.752-7.753 4.715-8.375h-.038l-4.715 8.375H92.989l7.87 7.75h-2.551Zm106.63-21.757 14.938 14.938-4.281 13.294-6.475-6.475M33.755 46.669v.003H18.138l7.923 7.75h15.476l-7.752-7.753h-.03zM52.641 46.669v.003H36.983l7.914 7.75h15.528l-7.752-7.753h-.032zM68.706 46.669l-.001.003H55.938l7.956 7.75h12.597l-7.752-7.753h-.033zM56.605 44.503l1.479-4.566-3.929-3.93h-.032l-.001.004h-6.009l8.492 8.492z" fill="#ed1c24"/><path fill="#ed1c24" d="M83.263 29.327h-8.9l6.723 6.723 2.177-6.723zM118.263 38.294h-8.467l7.744 7.744.723-7.744zM158.441 21.269l1.09-3.363a15.138 15.138 0 0 0 .551-2.254 2.077 2.077 0 0 0-.458-1.788 3.674 3.674 0 0 0-2.7-.71q-.5 0-.946.045a5.333 5.333 0 0 0-2.26.689 5.2 5.2 0 0 0-1.418 1.242l.021.021Z"/><path d="M10.971 69.927A2.681 2.681 0 0 0 8.59 68.8H7l-2.48 7.687h.943l2.178-6.746h.651a2.022 2.022 0 0 1 1.787.853 2.249 2.249 0 0 1 .2 2.063l-1.237 3.83h.944l1.237-3.83a3 3 0 0 0-.252-2.73Z" fill="#fff"/><path d="M13.53 69.309a4.119 4.119 0 0 0-2.106-2.286 10.118 10.118 0 0 0 3.561-2.26 8.187 8.187 0 0 0 2.124-3.348l1.236-3.83H17.4l-1.237 3.83a7.337 7.337 0 0 1-2.683 3.644 6.827 6.827 0 0 1-4.157 1.5H6.41l2.9-8.969h-.948l-6.1 18.9H3.2l2.9-8.994h2.922A3.585 3.585 0 0 1 12.2 69a4 4 0 0 1 .339 3.657l-1.239 3.83h.944l1.237-3.83a5.049 5.049 0 0 0 .049-3.348Z" fill="#fff"/><path d="M9.739 65.244a5.082 5.082 0 0 0 3.109-1.133 5.5 5.5 0 0 0 2-2.709l1.232-3.817h-.943l-1.237 3.83a4.112 4.112 0 0 1-1.521 2.038 3.863 3.863 0 0 1-2.338.853H9.4l2.17-6.721h-.944l-2.477 7.659ZM6.102 57.585 0 76.487h.944l6.102-18.902h-.944zM19.637 57.585l-1.237 3.83a11.693 11.693 0 0 1-4.418 5.608 6.114 6.114 0 0 1 .789 5.634l-1.236 3.83h.943l1.237-3.83a6.63 6.63 0 0 0-.417-5.634 11.85 11.85 0 0 0 4.046-5.608l1.236-3.83ZM25.231 70.408l.215-.667h6.78l.3-.939h-7.72l-.519 1.606a1.237 1.237 0 0 0 .1 1.125 1.1 1.1 0 0 0 .982.457h8.369l.3-.939h-8.369q-.645 0-.438-.643ZM28.27 63h8.369l.3-.939h-8.366a2.074 2.074 0 0 0-1.28.466 2.284 2.284 0 0 0-.824 1.127l-.515 1.594h7.724l.3-.938H27.2l.212-.656A.838.838 0 0 1 28.27 63Z" fill="#fff"/><path d="M23.17 72.447a2.232 2.232 0 0 1-.2-2.039l.941-2.915h9.04l.3-.939h-9.035l.933-2.891a4.122 4.122 0 0 1 1.514-2.038 3.826 3.826 0 0 1 2.325-.853h8.369l.3-.939h-8.366a5.068 5.068 0 0 0-3.082 1.124 5.465 5.465 0 0 0-2 2.706l-2.178 6.745a2.963 2.963 0 0 0 .257 2.706 2.655 2.655 0 0 0 2.357 1.124h8.368l.3-.939h-8.369a2 2 0 0 1-1.774-.852Z" fill="#fff"/><path d="M21.054 74.04a3.978 3.978 0 0 1-.343-3.632l2.178-6.745a7.328 7.328 0 0 1 2.687-3.632 6.8 6.8 0 0 1 4.138-1.507h8.368l.3-.939h-8.365a8.043 8.043 0 0 0-4.895 1.778 8.681 8.681 0 0 0-3.177 4.3l-2.177 6.745a4.711 4.711 0 0 0 .4 4.3 4.221 4.221 0 0 0 3.747 1.779h8.369l.3-.939h-8.366a3.562 3.562 0 0 1-3.164-1.508ZM53.5 65.911l.726-2.248a4.714 4.714 0 0 0-.4-4.3 4.222 4.222 0 0 0-3.747-1.778h-2.26a8.045 8.045 0 0 0-4.9 1.778 8.679 8.679 0 0 0-3.176 4.3l-4.14 12.824h.943l4.14-12.824a7.336 7.336 0 0 1 2.688-3.632 6.8 6.8 0 0 1 4.137-1.507h2.259a3.567 3.567 0 0 1 3.165 1.507 3.981 3.981 0 0 1 .342 3.632l-.726 2.248a8.451 8.451 0 0 1-2.3 3.361 4.914 4.914 0 0 1 .124 3.385l-1.237 3.83h.944l1.236-3.83a5.418 5.418 0 0 0 .075-3.385 8.581 8.581 0 0 0 2.107-3.361Z" fill="#fff"/><path d="M48.1 69.272a5.614 5.614 0 0 0 3.171-3.361l.726-2.248a2.943 2.943 0 0 0-.269-2.706 2.69 2.69 0 0 0-2.369-1.124H47.1a5.071 5.071 0 0 0-3.082 1.124 5.471 5.471 0 0 0-2 2.706l-4.147 12.824h.943l2.178-6.746h5.181a2.011 2.011 0 0 1 1.78.853 2.258 2.258 0 0 1 .194 2.063l-1.237 3.83h.944l1.236-3.83a2.715 2.715 0 0 0-.99-3.385Zm-1.621-.47H41.3l1.659-5.139a4.113 4.113 0 0 1 1.518-2.038 3.837 3.837 0 0 1 2.33-.853h2.267a2.008 2.008 0 0 1 1.779.853 2.224 2.224 0 0 1 .2 2.038l-.726 2.248a4.124 4.124 0 0 1-1.517 2.039 3.847 3.847 0 0 1-2.334.85Z" fill="#fff"/><path d="M49.734 63.663a1.25 1.25 0 0 0-.105-1.137 1.117 1.117 0 0 0-.991-.469h-2.26a2.071 2.071 0 0 0-1.281.469 2.316 2.316 0 0 0-.827 1.137l-1.236 3.83h3.849a2.149 2.149 0 0 0 1.29-.457 2.24 2.24 0 0 0 .835-1.125Zm-.969 0-.726 2.248a.83.83 0 0 1-.853.643h-2.905l.933-2.891a.831.831 0 0 1 .853-.643h2.26c.43 0 .573.215.438.643ZM46.725 71.52a1.114 1.114 0 0 0-.991-.469h-3.849l-1.755 5.436h.944l1.452-4.5h2.9q.647 0 .431.667l-1.237 3.83h.969l1.236-3.83a1.247 1.247 0 0 0-.1-1.134ZM67.887 57.585h-2.259a8.048 8.048 0 0 0-4.9 1.778 8.679 8.679 0 0 0-3.176 4.3l-4.14 12.824h.944L58.5 63.663a7.328 7.328 0 0 1 2.687-3.632 6.8 6.8 0 0 1 4.137-1.507h2.26a3.565 3.565 0 0 1 3.164 1.507 3.978 3.978 0 0 1 .342 3.632l-4.139 12.824h.943l4.14-12.824a4.711 4.711 0 0 0-.4-4.3 4.222 4.222 0 0 0-3.747-1.778Z" fill="#fff"/><path d="M69.53 60.957a2.689 2.689 0 0 0-2.369-1.124H64.9a5.071 5.071 0 0 0-3.083 1.124 5.469 5.469 0 0 0-2 2.706l-4.14 12.824h.944l4.139-12.824a4.125 4.125 0 0 1 1.518-2.038 3.837 3.837 0 0 1 2.33-.853h2.267a2.011 2.011 0 0 1 1.78.853 2.224 2.224 0 0 1 .2 2.038l-4.14 12.824h.944L69.8 63.663a2.943 2.943 0 0 0-.27-2.706Z" fill="#fff"/><path d="M67.434 62.526a1.115 1.115 0 0 0-.991-.469h-2.259a2.072 2.072 0 0 0-1.282.469 2.314 2.314 0 0 0-.826 1.137l-4.14 12.824h.943l4.148-12.848a.833.833 0 0 1 .858-.639h2.275q.651 0 .443.643l-4.147 12.844h.944l4.14-12.824a1.247 1.247 0 0 0-.106-1.137ZM76.586 72.447a2.232 2.232 0 0 1-.2-2.039l.941-2.915h9.04l.3-.939h-9.035l.933-2.891a4.118 4.118 0 0 1 1.515-2.038 3.821 3.821 0 0 1 2.324-.853h8.369l.3-.939h-8.366a5.068 5.068 0 0 0-3.082 1.124 5.465 5.465 0 0 0-2 2.706l-2.177 6.745a2.96 2.96 0 0 0 .256 2.706 2.655 2.655 0 0 0 2.357 1.124h8.368l.3-.939H78.36a2 2 0 0 1-1.774-.852Z" fill="#fff"/><path d="m78.647 70.408.215-.667h6.78l.3-.939h-7.72l-.522 1.606a1.237 1.237 0 0 0 .1 1.125 1.1 1.1 0 0 0 .982.457h8.369l.3-.939h-8.365q-.646 0-.439-.643Z" fill="#fff"/><path d="M74.47 74.04a3.978 3.978 0 0 1-.343-3.632l2.178-6.745a7.328 7.328 0 0 1 2.687-3.632 6.8 6.8 0 0 1 4.138-1.507h8.37l.3-.939h-8.367a8.043 8.043 0 0 0-4.9 1.778 8.681 8.681 0 0 0-3.177 4.3l-2.177 6.745a4.711 4.711 0 0 0 .4 4.3 4.221 4.221 0 0 0 3.747 1.779H85.7l.3-.939h-8.366a3.562 3.562 0 0 1-3.164-1.508Z" fill="#fff"/><path d="M80.709 62.523a2.284 2.284 0 0 0-.824 1.127l-.515 1.594h7.724l.3-.938h-6.78l.212-.656a.838.838 0 0 1 .86-.65h8.369l.3-.939h-8.366a2.074 2.074 0 0 0-1.28.462ZM96.452 70.408l4.14-12.823h-.943l-4.14 12.823a1.234 1.234 0 0 0 .1 1.125 1.1 1.1 0 0 0 .983.457h7.251l.3-.939h-7.252q-.647 0-.439-.643Z" fill="#fff"/><path d="M92.275 74.04a3.975 3.975 0 0 1-.342-3.632l4.14-12.823h-.944l-4.14 12.823a4.714 4.714 0 0 0 .4 4.3 4.221 4.221 0 0 0 3.747 1.779h7.251l.3-.939h-7.248a3.562 3.562 0 0 1-3.164-1.508Z" fill="#fff"/><path d="M94.391 72.447a2.235 2.235 0 0 1-.2-2.039l4.141-12.823h-.944l-4.14 12.823a2.96 2.96 0 0 0 .257 2.706 2.652 2.652 0 0 0 2.356 1.124h7.251l.3-.939h-7.247a2 2 0 0 1-1.774-.852ZM123.666 67.036a2.238 2.238 0 0 0 .834-1.125l.726-2.248a1.247 1.247 0 0 0-.105-1.137 1.115 1.115 0 0 0-.991-.469h-2.259a2.072 2.072 0 0 0-1.282.469 2.314 2.314 0 0 0-.826 1.137l-1.236 3.83h3.849a2.149 2.149 0 0 0 1.29-.457Zm-2.96-3.373a.833.833 0 0 1 .854-.643h2.259q.646 0 .439.643l-.726 2.248a.831.831 0 0 1-.853.643h-2.906Z" fill="#fff"/><path d="M129.721 63.663a4.714 4.714 0 0 0-.4-4.3 4.222 4.222 0 0 0-3.747-1.778h-2.259a8.048 8.048 0 0 0-4.9 1.778 8.679 8.679 0 0 0-3.176 4.3L111.1 76.487h.944l4.139-12.824a7.336 7.336 0 0 1 2.688-3.632 6.8 6.8 0 0 1 4.137-1.507h2.26a3.565 3.565 0 0 1 3.164 1.507 3.978 3.978 0 0 1 .342 3.632l-.725 2.248a7.343 7.343 0 0 1-2.688 3.633 6.806 6.806 0 0 1-4.137 1.507h-3.849l-1.755 5.436h.943l1.452-4.5h2.906a8.038 8.038 0 0 0 4.895-1.78 8.664 8.664 0 0 0 3.176-4.3Z" fill="#fff"/><path d="M121.649 69.741a5.115 5.115 0 0 0 3.095-1.124 5.445 5.445 0 0 0 2.016-2.706l.726-2.248a2.943 2.943 0 0 0-.269-2.706 2.688 2.688 0 0 0-2.369-1.124h-2.259a5.071 5.071 0 0 0-3.083 1.124 5.469 5.469 0 0 0-2 2.706l-4.14 12.824h.944l2.177-6.746Zm-3.2-6.078a4.117 4.117 0 0 1 1.517-2.038 3.837 3.837 0 0 1 2.33-.853h2.267a2.011 2.011 0 0 1 1.78.853 2.224 2.224 0 0 1 .2 2.038l-.725 2.248a4.132 4.132 0 0 1-1.518 2.039 3.844 3.844 0 0 1-2.33.852h-5.182ZM147.126 59.363a4.221 4.221 0 0 0-3.746-1.778h-2.26a8.043 8.043 0 0 0-4.9 1.778 8.687 8.687 0 0 0-3.177 4.3l-4.14 12.824h.944l4.14-12.824a7.328 7.328 0 0 1 2.687-3.632 6.8 6.8 0 0 1 4.138-1.507h2.259a3.564 3.564 0 0 1 3.164 1.507 3.978 3.978 0 0 1 .343 3.632l-4.14 12.824h.943l4.14-12.824a4.708 4.708 0 0 0-.395-4.3Z" fill="#fff"/><path d="M145.022 60.957a2.687 2.687 0 0 0-2.368-1.124h-2.26a5.068 5.068 0 0 0-3.082 1.124 5.465 5.465 0 0 0-2 2.706l-4.139 12.824h.943l2.178-6.746h8.095l-2.177 6.746h.943l4.14-12.824a2.94 2.94 0 0 0-.273-2.706Zm-.674 2.706-1.659 5.137h-8.1l1.659-5.139a4.117 4.117 0 0 1 1.517-2.038 3.842 3.842 0 0 1 2.331-.853h2.266a2.011 2.011 0 0 1 1.78.853 2.224 2.224 0 0 1 .206 2.04Z" fill="#fff"/><path d="M141.935 62.057h-2.259a2.076 2.076 0 0 0-1.282.469 2.32 2.32 0 0 0-.826 1.137l-1.236 3.83h5.463l1.237-3.83a1.25 1.25 0 0 0-.105-1.137 1.117 1.117 0 0 0-.992-.469Zm.153 1.606-.933 2.891h-3.576l.933-2.891a.834.834 0 0 1 .858-.643h2.275q.65 0 .443.643ZM135.183 71.051l-1.755 5.436h.944l1.451-4.497h3.577l-1.452 4.497h.944l1.755-5.436h-5.464zM164.932 59.363a4.222 4.222 0 0 0-3.747-1.778h-2.26a8.048 8.048 0 0 0-4.9 1.778 8.679 8.679 0 0 0-3.176 4.3l-4.14 12.824h.943l4.14-12.824a7.336 7.336 0 0 1 2.688-3.632 6.8 6.8 0 0 1 4.137-1.507h2.26a3.565 3.565 0 0 1 3.164 1.507 3.978 3.978 0 0 1 .342 3.632l-4.14 12.824h.944l4.14-12.824a4.714 4.714 0 0 0-.395-4.3Z" fill="#fff"/><path d="M160.732 62.526a1.117 1.117 0 0 0-.991-.469h-2.259a2.072 2.072 0 0 0-1.282.469 2.308 2.308 0 0 0-.826 1.137l-4.14 12.824h.943l4.148-12.848a.833.833 0 0 1 .858-.643h2.275q.651 0 .443.643l-4.147 12.848h.943l4.14-12.824a1.247 1.247 0 0 0-.105-1.137Z" fill="#fff"/><path d="M162.828 60.957a2.69 2.69 0 0 0-2.369-1.124H158.2a5.071 5.071 0 0 0-3.083 1.124 5.471 5.471 0 0 0-2 2.706l-4.139 12.824h.943l4.14-12.824a4.113 4.113 0 0 1 1.518-2.038 3.837 3.837 0 0 1 2.33-.853h2.267a2.011 2.011 0 0 1 1.78.853 2.227 2.227 0 0 1 .2 2.038l-4.14 12.824h.944l4.14-12.824a2.943 2.943 0 0 0-.272-2.706ZM172.75 71.99h3.204l.303-.939h-2.26l2.601-8.055h2.259l.304-.939h-3.204l-3.207 9.933zM170.318 58.524h9.983l.304-.939h-9.984l-.303.939zM164.519 76.487h9.983l.304-.939h-9.984l-.303.939zM166.274 71.051l-.303.939h3.203l3.207-9.933h-3.204l-.303.939h2.26l-2.6 8.055h-2.26z" fill="#fff"/><path fill="#fff" d="M175.056 60.772h4.519l.304-.939h-9.983l-.304.939h4.52l-4.044 12.527h-4.52l-.303.939h9.983l.303-.939h-4.519l4.044-12.527zM193.092 64.132h.944l.152-.469a2.943 2.943 0 0 0-.269-2.706 2.69 2.69 0 0 0-2.369-1.124h-2.26a5.071 5.071 0 0 0-3.082 1.124 5.471 5.471 0 0 0-2 2.706l-2.177 6.745a2.96 2.96 0 0 0 .257 2.706 2.652 2.652 0 0 0 2.356 1.124h2.256a5.115 5.115 0 0 0 3.095-1.124 5.441 5.441 0 0 0 2.016-2.706l.152-.469h-.944l-.151.469a4.127 4.127 0 0 1-1.518 2.039 3.844 3.844 0 0 1-2.33.852h-2.267a2.011 2.011 0 0 1-1.78-.852 2.226 2.226 0 0 1-.2-2.039l2.178-6.745a4.113 4.113 0 0 1 1.518-2.038 3.837 3.837 0 0 1 2.33-.853h2.267a2.008 2.008 0 0 1 1.779.853 2.224 2.224 0 0 1 .2 2.038Z"/><path d="M190.833 64.132h.943l.152-.469a1.25 1.25 0 0 0-.1-1.137 1.117 1.117 0 0 0-.991-.469h-2.259a2.072 2.072 0 0 0-1.282.469 2.308 2.308 0 0 0-.826 1.137l-2.178 6.745a1.234 1.234 0 0 0 .1 1.125 1.1 1.1 0 0 0 .983.457h2.259a2.147 2.147 0 0 0 1.291-.457 2.243 2.243 0 0 0 .834-1.125l.152-.469h-.944l-.152.469a.833.833 0 0 1-.858.643h-2.274q-.651 0-.443-.645l2.184-6.766a.836.836 0 0 1 .859-.644h2.275c.433 0 .58.219.438.657Z" fill="#fff"/><path d="M195.327 64.132h.969l.151-.469a4.705 4.705 0 0 0-.4-4.3 4.234 4.234 0 0 0-3.754-1.778h-2.263a8.065 8.065 0 0 0-4.9 1.778 8.674 8.674 0 0 0-3.179 4.3l-2.178 6.745a4.708 4.708 0 0 0 .4 4.3 4.233 4.233 0 0 0 3.754 1.779h2.264a8.06 8.06 0 0 0 4.9-1.779 8.665 8.665 0 0 0 3.179-4.3l.152-.469h-.969l-.151.469a7.336 7.336 0 0 1-2.688 3.632 6.8 6.8 0 0 1-4.137 1.508h-2.26a3.564 3.564 0 0 1-3.164-1.508 3.975 3.975 0 0 1-.342-3.632l2.177-6.745a7.336 7.336 0 0 1 2.688-3.632 6.8 6.8 0 0 1 4.137-1.507h2.26a3.565 3.565 0 0 1 3.164 1.507 3.981 3.981 0 0 1 .342 3.632ZM200.241 76.509h.944l1.693-5.435h-.944l-1.693 5.435zM197.415 71.074l-1.694 5.435h.944l1.694-5.435h-.944zM199.675 71.074l-1.693 5.435h.943l1.693-5.435h-.943zM202.343 69.764h.943l3.787-12.155h-.943l-3.787 12.155zM204.813 57.609h-.943l-3.787 12.155h.944l3.786-12.155zM197.823 69.764h.943l3.788-12.155h-.944l-3.787 12.155zM33.755 46.672v-.003l1.151-3.551h-7.974l6.555-20.235h-7.674l-7.706 23.789h15.648zM52.641 46.672v-.003l1.151-3.551h-8.017l2.302-7.107h6.045l.001-.004 1.179-3.638h-6.045l1.828-5.641.084-.262H59.1l.002-.005 1.159-3.578H44.656l-2.724 8.41-4.604 14.214-.378 1.165h15.691zM59.604 35.247l-.34 1.048-1.18 3.642-1.479 4.566-.341 1.052-.361 1.117h12.802l.001-.003.568-1.753 5.049-15.589h8.94l-2.177 6.723-3.441 10.622h12.873l.001-.003 12.855-39.684H90.501l-2.177 6.72-3.027 9.345-.002.006h-8.94l5.206-16.071H68.759l-5.96 18.397-1.161 3.584-1.94 5.991-.094.29zM117.54 46.038l-.06.634h11.8l2.057-39.684h-14.59l-5 8.331-18.8 31.356h12.087l4.715-8.375h8.511Zm3.146-28.47-.012.095-1.928 15.384H112.6ZM132.282 40.425c.008.039.022.075.031.114.028.124.063.244.1.365l.167.488c.042.108.083.215.131.32l.115.233c.056.107.117.212.18.316l.272.412c.068.094.134.187.208.277l.2.239c.108.12.219.239.338.353l.111.107c.12.111.252.216.383.321a9.283 9.283 0 0 0 1.669 1.061 16.319 16.319 0 0 0 5.262 1.385l.034.005.081.008c.3.035.613.067.932.094l.133.014.327.024.11.008.21.016c.828.052 1.7.082 2.628.084h.763l1.208-.037c.231-.008.473-.009.7-.02.14-.008.283-.012.421-.021.059 0 .121 0 .18-.009.157-.01.306-.026.46-.038.3-.023.6-.046.892-.075l.237-.026q.558-.06 1.093-.135l.305-.047c.367-.055.73-.114 1.08-.181l.045-.009a21.1 21.1 0 0 0 3.392-.935 15.643 15.643 0 0 0 6.443-4.213 17.149 17.149 0 0 0 3.426-6.051l.921-2.842h-12.512L153.8 35.6q-.187.579-.425 1.148l-.017.041a15.4 15.4 0 0 1-.513 1.1v.012l-.009.015a5.1 5.1 0 0 1-.3.5l-.065.086a4.688 4.688 0 0 1-.323.407l-.033.035a4.86 4.86 0 0 1-.412.4l-.029.025a5.312 5.312 0 0 1-.5.37 3.44 3.44 0 0 1-.577.3l-.059.024a4.922 4.922 0 0 1-.621.192l-.116.028a6.747 6.747 0 0 1-.764.122 9.271 9.271 0 0 1-.954.046c-.3 0-.572-.014-.827-.039h-.047a5.072 5.072 0 0 1-.671-.116l-.049-.01a3.081 3.081 0 0 1-.511-.181c-.03-.014-.062-.026-.091-.041a2 2 0 0 1-.388-.252c-.008-.007-.019-.011-.027-.018s-.031-.036-.048-.053a2.066 2.066 0 0 1-.276-.3l-.006-.009a2.009 2.009 0 0 1-.219-.4L144.91 39a2.162 2.162 0 0 1-.125-.45 2.749 2.749 0 0 1-.03-.5v-.035a7.311 7.311 0 0 1 .131-1.135v-.01a10.511 10.511 0 0 1 .323-1.241l.006-.022.317-.979 3.54-10.928 1.828-5.646c.019-.056.043-.108.062-.163.068-.2.146-.4.223-.593.045-.116.084-.237.132-.351l.049-.12c.122-.281.262-.552.4-.822.048-.091.087-.188.137-.278.023-.042.053-.079.077-.12a4.7 4.7 0 0 1 .244-.379c.01-.013.018-.027.028-.039l.05-.058a5.2 5.2 0 0 1 1.412-1.242 5.333 5.333 0 0 1 2.26-.689q.449-.045.946-.045a3.674 3.674 0 0 1 2.7.71 2.077 2.077 0 0 1 .458 1.788 15.138 15.138 0 0 1-.551 2.254l-1.09 3.363-.023.072h12.516v-.006l.936-2.89a10.747 10.747 0 0 0 .434-5.977 6.227 6.227 0 0 0-3.8-4.043q-3.144-1.445-9.58-1.445a41.462 41.462 0 0 0-6.017.4 24.3 24.3 0 0 0-4.911 1.219 16.288 16.288 0 0 0-6.884 4.581 18.723 18.723 0 0 0-1.489 2.039 19.961 19.961 0 0 0-1.158 2.067c-.133.272-.273.537-.4.819l-.167.4c-.12.29-.224.6-.335.9s-.225.565-.322.863l-4.267 13.174c-.2.609-.357 1.2-.489 1.771-.012.055-.029.111-.04.165v.019c-.062.281-.113.556-.158.829l-.025.154c-.033.209-.058.414-.081.618l-.035.331a10.689 10.689 0 0 0 .122 2.961c.004.044.009.09.018.134ZM170.192 33.024l-.408 1.258-3.999 12.346-.003.008-.011.036h12.802l.001-.003 5.173-15.97 1.867-1.568.005.033.606 3.96 2.075 13.548h13.016v-.003l-4.182-21.751 16.537-17.933h-12.516l-4.643 5.027-10.264 11.112-.073.079 5.254-16.218h-12.802l-2.633 8.128-2.749 8.486-3.031 9.357-.022.068z" fill="#fff"/></svg>